<svg xmlns="http://www.w3.org/2000/svg" viewBox="0 0 16 16">
  <defs>
    <!-- Fabricon gradient: industrial blue to precision silver -->
    <linearGradient id="fabriconGradient16" x1="0%" y1="0%" x2="100%" y2="100%">
      <stop offset="0%" style="stop-color:#00d4ff;stop-opacity:1" />
      <stop offset="50%" style="stop-color:#4B96DC;stop-opacity:1" />
      <stop offset="100%" style="stop-color:#c0c0c0;stop-opacity:1" />
    </linearGradient>
    
    <!-- Precision glow for technological feel -->
    <radialGradient id="precisionGlow16" cx="50%" cy="50%" r="50%">
      <stop offset="0%" style="stop-color:#ffffff;stop-opacity:0.9" />
      <stop offset="40%" style="stop-color:#00d4ff;stop-opacity:0.6" />
      <stop offset="100%" style="stop-color:#000000;stop-opacity:0" />
    </radialGradient>
  </defs>
  
  <!-- Dark industrial background -->
  <rect width="16" height="16" rx="3" fill="#0a0a0a"/>
  
  <!-- The Fabricon: Simplified for 16x16 -->
  <!-- Outer hexagon -->
  <polygon points="8,1.5 12.93,4 12.93,9 8,11.5 3.07,9 3.07,4" 
           fill="none" 
           stroke="url(#fabriconGradient16)" 
           stroke-width="0.8" 
           opacity="0.9"/>
  
  <!-- Inner precision core -->
  <polygon points="8,3.5 10.46,5 10.46,8 8,9.5 5.54,8 5.54,5" 
           fill="none" 
           stroke="url(#fabriconGradient16)" 
           stroke-width="0.6" 
           opacity="0.8"/>
  
  <!-- Central glow -->
  <circle cx="8" cy="6.5" r="2.5" fill="url(#precisionGlow16)" opacity="0.6"/>
  
  <!-- Diamond core -->
  <polygon points="8,4.5 9.5,6.5 8,8.5 6.5,6.5" 
           fill="url(#fabriconGradient16)"/>
  
  <!-- Precision nodes -->
  <circle cx="8" cy="2.5" r="0.6" fill="#00d4ff" opacity="0.9"/>
  <circle cx="12" cy="4.5" r="0.6" fill="#4B96DC" opacity="0.9"/>
  <circle cx="12" cy="8.5" r="0.6" fill="#c0c0c0" opacity="0.9"/>
  <circle cx="8" cy="10.5" r="0.6" fill="#00d4ff" opacity="0.9"/>
  <circle cx="4" cy="8.5" r="0.6" fill="#4B96DC" opacity="0.9"/>
  <circle cx="4" cy="4.5" r="0.6" fill="#c0c0c0" opacity="0.9"/>
  
  <!-- Center precision point -->
  <circle cx="8" cy="6.5" r="0.5" fill="#00d4ff"/>
</svg>