<svg xmlns="http://www.w3.org/2000/svg" viewBox="0 0 64 64" width="64" height="64">
  <defs>
    <!-- Revolutionary Neural Lightning Sphere Gradients -->
    <radialGradient id="sphereGradient" cx="30%" cy="30%">
      <stop offset="0%" style="stop-color:#00d4ff;stop-opacity:1" />
      <stop offset="70%" style="stop-color:#4B96DC;stop-opacity:1" />
      <stop offset="100%" style="stop-color:#2d1b69;stop-opacity:1" />
    </radialGradient>
    
    <!-- Outer Glow Effect -->
    <filter id="outerGlow">
      <feGaussianBlur stdDeviation="2" result="coloredBlur"/>
      <feMerge> 
        <feMergeNode in="coloredBlur"/>
        <feMergeNode in="SourceGraphic"/>
      </feMerge>
    </filter>
    
    <!-- Lightning Glow Effect -->
    <filter id="lightningGlow">
      <feGaussianBlur stdDeviation="0.5" result="coloredBlur"/>
      <feMerge> 
        <feMergeNode in="coloredBlur"/>
        <feMergeNode in="SourceGraphic"/>
      </feMerge>
    </filter>
  </defs>
  
  <!-- Base Neural Sphere -->
  <circle cx="32" cy="32" r="28" fill="url(#sphereGradient)" filter="url(#outerGlow)"/>
  
  <!-- AI Neural Lightning Network -->
  <g filter="url(#lightningGlow)" stroke="#ffffff" stroke-width="1.2" fill="none" opacity="0.9">
    <!-- Central Intelligence Hub -->
    <circle cx="32" cy="32" r="3" fill="#ffffff" opacity="0.8"/>
    
    <!-- Primary Lightning Neural Branches -->
    <path d="M32 32 L45 20 L48 25 L42 28 L50 35" stroke-width="1.5"/>
    <path d="M32 32 L20 18 L15 22 L22 25 L12 30" stroke-width="1.5"/>
    <path d="M32 32 L48 45 L45 50 L40 47 L52 52" stroke-width="1.5"/>
    <path d="M32 32 L18 48 L22 52 L25 48 L15 55" stroke-width="1.5"/>
    
    <!-- Secondary Predictive Connections -->
    <path d="M32 32 L55 32 L52 28 L52 36" stroke-width="1"/>
    <path d="M32 32 L9 32 L12 28 L12 36" stroke-width="1"/>
    <path d="M32 32 L32 8 L28 12 L36 12" stroke-width="1"/>
    <path d="M32 32 L32 56 L28 52 L36 52" stroke-width="1"/>
    
    <!-- Micro Intelligence Patterns -->
    <path d="M42 25 L38 22 L40 20" stroke-width="0.8" opacity="0.7"/>
    <path d="M22 22 L25 18 L23 16" stroke-width="0.8" opacity="0.7"/>
    <path d="M45 47 L42 50 L44 52" stroke-width="0.8" opacity="0.7"/>
    <path d="M22 50 L18 47 L20 45" stroke-width="0.8" opacity="0.7"/>
    
    <!-- Neural Processing Nodes -->
    <circle cx="45" cy="20" r="1.5" fill="#ffffff" opacity="0.6"/>
    <circle cx="20" cy="18" r="1.5" fill="#ffffff" opacity="0.6"/>
    <circle cx="48" cy="45" r="1.5" fill="#ffffff" opacity="0.6"/>
    <circle cx="18" cy="48" r="1.5" fill="#ffffff" opacity="0.6"/>
    <circle cx="55" cy="32" r="1.5" fill="#ffffff" opacity="0.6"/>
    <circle cx="9" cy="32" r="1.5" fill="#ffffff" opacity="0.6"/>
    <circle cx="32" cy="8" r="1.5" fill="#ffffff" opacity="0.6"/>
    <circle cx="32" cy="56" r="1.5" fill="#ffffff" opacity="0.6"/>
  </g>
  
  <!-- Sphere Highlight for 3D Effect -->
  <ellipse cx="25" cy="25" rx="8" ry="6" fill="#ffffff" opacity="0.3" transform="rotate(-20 25 25)"/>
</svg>